PathFileType	4	(X/Y/Z)	C:\Users\WrightLab\Desktop\Jo\P5V23.trc
DataRate	CameraRate	NumFrames	NumMarkers	Units	OrigDataRate	OrigDataStartFrame	OrigNumFrames
100.00	100.00	       43	19	mm	100.00	185	       739
Frame#	Time	Headset_Front			Headset_Back			Headset_Left			Headset_Right			Left_Shoulder			Right_Shoulder			Sternum			C7			Left Elbow			Right Elbow			Left Wrist			Right Wrist			Left ASIS			Right ASIS			S2			Left Knee			Right Knee			Left Ankle			Right Ankle			
		X1	Y1	Z1	X2	Y2	Z2	X3	Y3	Z3	X4	Y4	Z4	X5	Y5	Z5	X6	Y6	Z6	X7	Y7	Z7	X8	Y8	Z8	X9	Y9	Z9	X10	Y10	Z10	X11	Y11	Z11	X12	Y12	Z12	X13	Y13	Z13	X14	Y14	Z14	X15	Y15	Z15	X16	Y16	Z16	X17	Y17	Z17	X18	Y18	Z18	X19	Y19	Z19	

185	1.840																												-594.44885	1190.72742	-1073.72644				-452.29614	1198.07507	-889.25458	-189.75774	915.48389	-1071.56140	-463.61703	937.04425	-1047.54456				-152.93631	478.51013	-1109.64233	-517.29877	473.18750	-1092.06531	-222.41122	67.68035	-1248.25220				
186	1.850																												-593.99738	1190.02795	-1073.48364				-451.68057	1198.06580	-889.30676	-189.76550	915.78735	-1072.26538	-463.71240	936.93073	-1047.53259				-153.05301	478.36349	-1109.83679	-517.25720	473.15662	-1092.05310	-222.52103	69.07430	-1246.98193				
187	1.860																												-593.96454	1189.98743	-1073.46484				-450.98758	1198.06274	-889.63416	-189.79100	915.77692	-1072.28174	-463.72473	936.93427	-1047.53870				-153.20683	478.53464	-1109.84363	-517.21167	473.12592	-1092.04028	-222.52103	69.07430	-1246.98193				
188	1.870																												-594.07886	1189.88098	-1073.52161				-450.84464	1198.00415	-889.58020	-189.83791	914.95557	-1072.12183	-463.74149	936.90387	-1047.54346				-153.24664	478.37564	-1109.88647	-517.15082	473.08060	-1092.02246	-222.52103	69.07430	-1246.98193				
189	1.880																												-594.12000	1189.78516	-1073.48499				-449.98560	1197.68262	-889.84674	-189.79530	915.47058	-1071.58545	-463.73080	936.88159	-1047.53613				-152.94064	478.50952	-1109.64453	-517.16711	473.09204	-1092.02710	-222.52103	69.07430	-1246.98193				
190	1.890																												-594.13562	1189.72986	-1073.37390				-449.71765	1197.64148	-889.99213	-189.80295	915.78259	-1072.28992	-463.74420	936.87469	-1047.54175				-152.96623	478.49554	-1109.65491	-517.10229	472.97699	-1092.65759	-222.52103	69.07430	-1246.98193				
191	1.900																												-594.12317	1189.71765	-1073.36707				-448.93250	1197.23340	-890.03485	-189.83022	915.45941	-1071.60791	-463.50650	936.63770	-1047.47375				-153.14401	478.51492	-1109.69775	-517.08765	472.96454	-1092.65308	-222.75011	67.94497	-1247.35474				
192	1.910																												-594.10529	1189.70605	-1073.35779				-448.67218	1197.12585	-889.93658	-189.85518	914.94751	-1072.13293	-463.63818	936.47839	-1047.60547				-153.17125	478.49405	-1109.51636	-517.22870	472.74045	-1092.84412	-222.52103	69.07430	-1246.98193				
193	1.920																												-594.09198	1189.67249	-1073.34863				-448.60785	1196.91174	-889.99225	-189.90111	914.51642	-1072.94141	-463.91052	936.44574	-1047.61279				-152.86803	478.55060	-1109.44580	-517.23517	472.74771	-1092.84631	-222.52103	69.07430	-1246.98193				
194	1.930																												-594.06281	1189.65601	-1073.33362				-448.35349	1196.98047	-889.81415	-189.88593	914.68787	-1073.84680	-463.61118	936.41333	-1047.58594				-152.43744	478.89890	-1109.50574	-517.25165	472.60904	-1093.14941	-222.52103	69.07430	-1246.98193				
195	1.940																												-594.10498	1189.58655	-1073.25391				-448.39066	1196.71338	-890.16943	-189.91525	914.48322	-1072.94910	-463.25775	936.24780	-1047.37915				-152.20891	478.81775	-1109.81665	-517.25098	472.60574	-1093.14880	-222.64180	66.54899	-1248.62756				
196	1.950																												-594.06860	1189.57532	-1073.23596				-447.79425	1195.84998	-889.94751	-189.91908	914.64398	-1073.86658	-463.24606	936.23810	-1047.37256				-151.79887	478.76556	-1109.45215	-517.24054	472.59833	-1093.14575	-222.41122	67.68035	-1248.25220				
197	1.960																												-594.03076	1189.29443	-1073.17285				-447.92606	1195.66370	-890.42657	-189.92625	914.98779	-1074.57312	-462.93362	935.84052	-1047.36682				-151.48540	478.81833	-1109.87061	-517.23383	472.59186	-1093.14355	-222.64180	66.54899	-1248.62756				
198	1.970																												-593.96313	1189.29199	-1072.85107				-447.92606	1195.66370	-890.42657	-189.93939	914.64502	-1073.88000	-463.23068	936.18298	-1047.35950				-151.38184	478.86151	-1109.82507	-517.21918	472.57928	-1093.13904	-224.05923	66.50034	-1248.70081				
199	1.980																												-593.75305	1189.35339	-1072.43579				-447.81146	1195.68420	-890.70715	-189.85019	914.99677	-1074.52319	-463.22415	936.15619	-1047.35364				-150.42046	478.86813	-1110.64893	-517.50366	472.41733	-1092.62756	-222.75011	67.94497	-1247.35474				
200	1.990																												-593.71497	1189.25940	-1072.08533				-446.45358	1194.78284	-890.35437	-189.86690	914.98492	-1074.53369	-463.00250	935.64954	-1047.39575				-149.63548	478.82034	-1110.94128	-517.45953	472.51425	-1092.46399	-222.64180	66.54899	-1248.62756				
201	2.000																												-593.65356	1189.23608	-1072.05469				-446.45358	1194.78284	-890.35437	-189.37044	915.20367	-1074.38062	-462.51929	935.30585	-1047.14221				-149.20358	478.95538	-1111.04675	-517.43939	472.49173	-1092.45691	-222.64180	66.54899	-1248.62756				
202	2.010																												-593.54865	1189.20117	-1071.85864				-446.41092	1194.88342	-890.08643	-189.32785	915.20471	-1074.35254	-462.34610	935.50427	-1047.31665				-148.86545	479.18216	-1111.11035	-517.51746	472.41232	-1092.25610	-222.64180	66.54899	-1248.62756				
203	2.020																												-593.42767	1189.11621	-1071.68799				-446.26868	1195.06006	-889.57758	-189.25887	915.07629	-1075.39844	-462.20029	935.16418	-1047.08618				-148.33095	479.14096	-1111.42200	-517.52405	472.40784	-1092.25647	-222.64180	66.54899	-1248.62756				
204	2.030																												-592.97095	1189.34802	-1071.17163				-445.82858	1194.64136	-889.13263	-188.37704	915.45667	-1075.12256	-462.32028	935.48151	-1047.30212				-147.92134	479.37582	-1111.32227	-517.49042	471.41739	-1092.60815	-222.64180	66.54899	-1248.62756				
205	2.040																												-592.64117	1189.15198	-1070.48438				-445.74503	1194.46814	-888.66260	-187.57864	915.47186	-1074.82031	-461.99905	935.33813	-1047.58911				-147.65898	479.34027	-1111.87842	-517.49231	471.40207	-1092.60583	-222.64180	66.54899	-1248.62756				
206	2.050																												-592.38824	1188.76013	-1068.84753				-445.30511	1193.78894	-888.13135	-187.32268	915.56757	-1074.65564	-461.32739	934.63690	-1047.43323				-147.16646	479.33176	-1111.80750	-517.49939	471.39563	-1092.60608	-222.64180	66.54899	-1248.62756				
207	2.060																												-592.05817	1188.52466	-1068.15222				-444.39539	1193.53784	-886.97699	-187.14400	915.58759	-1074.53845	-461.13199	934.76257	-1047.33777				-146.90752	479.41873	-1111.90771	-517.51599	471.44846	-1092.24304	-222.64180	66.54899	-1248.62756				
208	2.070																												-591.05518	1188.36633	-1067.51917				-443.90649	1193.60632	-886.07495	-186.87442	915.61176	-1074.36121	-460.73596	934.93823	-1046.90906				-146.07054	479.45905	-1111.98303	-517.33075	471.80542	-1091.68445	-222.64180	66.54899	-1248.62756				
209	2.080																												-589.90625	1187.30847	-1066.43530				-442.87943	1193.36780	-884.80280	-185.96111	915.15588	-1074.38708	-459.70804	935.03894	-1046.35645				-145.39098	479.32220	-1112.45911	-516.87524	471.36627	-1091.67639	-222.64180	66.54899	-1248.62756				
210	2.090																												-589.77893	1187.77563	-1065.42102				-442.34024	1193.14697	-883.67523	-187.33736	914.90436	-1075.95837	-459.28418	935.08759	-1045.99292				-144.47833	479.41510	-1112.61768	-516.73175	471.54288	-1091.57947	-222.64180	66.54899	-1248.62756				
211	2.100																												-590.31378	1188.36084	-1065.30273				-441.97745	1192.69592	-882.89264	-184.45255	914.87341	-1074.89514	-458.65186	934.68793	-1045.62817				-143.78529	479.49002	-1112.98950	-516.71765	471.54944	-1091.57813	-222.75011	67.94497	-1247.35474				
212	2.110																												-589.99219	1188.33972	-1064.13416				-441.54367	1193.07666	-881.29156	-184.13844	914.52246	-1075.46924	-458.19614	934.37469	-1045.08508				-143.23305	479.63528	-1113.11890	-516.77234	471.60336	-1091.08496	-222.64180	66.54899	-1248.62756				
213	2.120																												-589.31818	1188.28711	-1063.31140				-441.45639	1192.89160	-879.92371	-183.07753	915.25146	-1075.98254	-457.58240	934.31812	-1044.78516				-142.78859	479.56720	-1112.97192	-516.53870	472.00378	-1090.54150	-222.64180	66.54899	-1248.62756				
214	2.130																												-589.52808	1189.20752	-1062.19006				-441.15845	1193.08362	-878.50507	-182.91455	915.29950	-1075.87683	-456.95673	934.76691	-1044.21631				-141.75089	479.80823	-1112.43469	-516.59943	471.89581	-1090.16809	-222.64180	66.54899	-1248.62756				
215	2.140																												-587.44037	1188.16125	-1061.22424				-440.65524	1192.46008	-877.29327	-182.03555	915.30988	-1076.69421	-455.63309	934.49054	-1044.05627				-141.02808	480.06757	-1112.10498	-515.82391	472.41861	-1089.27869	-222.64180	66.54899	-1248.62756				
216	2.150																												-585.99146	1187.12415	-1060.53833				-440.60788	1192.40076	-875.29504	-181.10686	915.84821	-1076.95740	-454.48260	934.02417	-1043.18933				-140.16048	479.92542	-1111.62427	-514.97876	472.08981	-1088.78601	-222.64180	66.54899	-1248.62756				
217	2.160																												-585.22540	1186.94910	-1059.28259				-439.87268	1192.15662	-874.15002	-180.91579	915.94135	-1076.83508	-454.23251	934.21509	-1042.72986				-139.40588	480.33655	-1111.36304	-513.35474	471.32635	-1088.07031	-222.64180	66.54899	-1248.62756				
218	2.170																												-584.56451	1186.57605	-1058.19189				-439.89825	1191.74573	-872.03546	-179.99652	916.03259	-1076.48010	-453.17169	934.39276	-1041.71741				-138.60741	480.06406	-1110.94373	-511.83469	470.81854	-1087.81995	-222.64180	66.54899	-1248.62756				
219	2.180																												-584.17401	1186.80615	-1056.98413				-438.99194	1192.11414	-871.98157	-179.72142	916.14789	-1076.30310	-451.59552	934.02539	-1041.44348				-137.66681	480.06042	-1110.30859	-510.40408	470.84595	-1086.31641	-222.64180	66.54899	-1248.62756				
220	2.190																												-583.37561	1186.61218	-1056.28845				-438.95447	1192.33142	-870.03699	-178.04738	916.29010	-1075.57471	-450.08865	934.42303	-1040.00818				-137.10820	479.89813	-1109.89832	-509.87097	471.44623	-1085.42188	-222.64180	66.54899	-1248.62756				
221	2.200																												-582.20679	1186.20923	-1055.63123				-438.38913	1191.62512	-867.53333	-176.29578	916.45770	-1074.79590	-449.63177	934.22241	-1039.58301				-136.51501	480.01120	-1108.94788	-509.10297	471.99829	-1084.07043	-222.64180	66.54899	-1248.62756				
222	2.210																												-580.51593	1185.28394	-1053.98669				-438.60776	1191.03357	-866.20123	-175.49686	916.61810	-1074.27319	-448.28500	934.53076	-1038.69897				-135.95747	479.30209	-1108.82532	-508.81485	471.46335	-1083.40686	-222.64180	66.54899	-1248.62756				
223	2.220																												-579.59369	1185.44568	-1052.86365				-438.61606	1190.94409	-864.87018	-174.23357	916.56726	-1074.77649	-447.17773	934.42633	-1037.92151				-135.33989	478.57138	-1107.59412	-507.76907	471.32443	-1082.16418	-222.64180	66.54899	-1248.62756				
224	2.230																												-578.51459	1184.91980	-1052.41528				-437.37921	1191.33362	-863.19537	-173.13658	916.11017	-1074.80811	-446.03738	934.43506	-1037.05603				-134.12027	479.08633	-1106.81042	-506.71909	471.21371	-1080.48462	-222.64180	66.54899	-1248.62756				
225	2.240																												-576.99316	1184.71570	-1051.18237				-436.35172	1190.01233	-861.88159	-172.29007	915.92151	-1075.25342	-444.68417	934.19946	-1035.75562				-132.95061	479.28656	-1106.15234	-503.34451	470.24374	-1079.61438	-222.84525	65.50988	-1250.34241				
226	2.250																												-576.00989	1184.44531	-1050.59668				-435.09149	1188.58008	-859.66840	-170.15933	916.20947	-1074.43494	-442.29007	933.98187	-1034.90869				-131.14020	479.32068	-1105.54993	-502.56171	470.95987	-1078.11035	-222.84525	65.50988	-1250.34241				
227	2.260																												-575.14862	1184.14282	-1049.67664				-435.54425	1188.68018	-858.43835	-169.47125	916.31409	-1073.98230	-441.13321	934.12756	-1034.13538				-130.49597	479.25293	-1105.31226	-502.02963	471.13266	-1076.91589	-222.84525	65.50988	-1250.34241				
